<svg xmlns="http://www.w3.org/2000/svg" viewBox="0 0 32 32" width="32" height="32">
  <rect width="32" height="32" rx="6" fill="#1f2328"/>
  <path fill="#ffffff" d="M16 5.3c-6 0-10.8 4.9-10.8 10.8 0 4.7 3.1 8.7 7.3 10.1.5.1.7-.2.7-.5v-1.9c-3 .6-3.6-1.4-3.6-1.4-.5-1.2-1.2-1.6-1.2-1.6-1-.6.1-.6.1-.6 1.1.1 1.6 1.1 1.6 1.1 1 1.6 2.5 1.2 3.1.9.1-.7.4-1.2.6-1.5-2.4-.3-4.9-1.2-4.9-5.3 0-1.2.4-2.1 1.1-2.9-.1-.3-.5-1.4.1-2.9 0 0 .9-.3 3 1.1.9-.2 1.8-.4 2.8-.4.9 0 1.9.1 2.8.4 2.1-1.4 3-1.1 3-1.1.6 1.5.2 2.6.1 2.9.7.8 1.1 1.7 1.1 2.9 0 4.1-2.5 5-4.9 5.3.4.3.7 1 .7 2v3c0 .3.2.6.7.5 4.2-1.4 7.3-5.4 7.3-10.1C26.8 10.2 22 5.3 16 5.3z"/>
  <rect x="9.5" y="21.5" width="9" height="6.2" rx="1" fill="#ffd33d"/>
  <line x1="11.2" y1="23.6" x2="16.3" y2="23.6" stroke="#1f2328" stroke-width="0.9" stroke-linecap="round"/>
  <line x1="11.2" y1="25.4" x2="16.3" y2="25.4" stroke="#1f2328" stroke-width="0.9" stroke-linecap="round"/>
</svg>
